<svg width="30" height="29" viewBox="0 0 30 29" fill="none" xmlns="http://www.w3.org/2000/svg">
<path d="M14.9999 27.0653C13.3585 27.0681 11.7327 26.7466 10.2158 26.1194C8.69901 25.4921 7.32098 24.5715 6.16087 23.4103C1.28687 18.5363 1.28687 10.6063 6.16087 5.73231C8.52187 3.37131 11.6609 2.07031 14.9999 2.07031C18.3389 2.07031 21.4779 3.37031 23.8389 5.73231C28.7129 10.6063 28.7129 18.5363 23.8389 23.4103C22.6788 24.5715 21.3007 25.4921 19.7839 26.1194C18.2671 26.7466 16.6413 27.0681 14.9999 27.0653ZM14.9999 4.07031C13.6203 4.06651 12.2537 4.33642 10.9792 4.86442C9.70468 5.39243 8.54757 6.16803 7.57487 7.14631C3.48187 11.2403 3.48187 17.9013 7.57487 21.9963C11.6689 26.0893 18.3299 26.0893 22.4249 21.9963C26.5179 17.9023 26.5179 11.2413 22.4249 7.14631C21.452 6.1682 20.2949 5.39272 19.0204 4.86473C17.7459 4.33674 16.3794 4.06673 14.9999 4.07031ZM23.1319 22.7033H23.1419H23.1319Z" fill="#204E23"/>
<path d="M15.0001 17.8693C14.8688 17.8694 14.7387 17.8436 14.6174 17.7933C14.4961 17.743 14.3859 17.6693 14.2931 17.5763L9.69715 12.9803C9.50964 12.7928 9.4043 12.5385 9.4043 12.2733C9.4043 12.0081 9.50964 11.7538 9.69715 11.5663C9.88465 11.3788 10.139 11.2734 10.4041 11.2734C10.6693 11.2734 10.9236 11.3788 11.1111 11.5663L15.0001 15.4553L18.8891 11.5663C18.982 11.4734 19.0922 11.3998 19.2135 11.3495C19.3348 11.2993 19.4648 11.2734 19.5961 11.2734C19.7274 11.2734 19.8575 11.2993 19.9788 11.3495C20.1001 11.3998 20.2103 11.4734 20.3031 11.5663C20.396 11.6591 20.4696 11.7694 20.5199 11.8907C20.5701 12.012 20.596 12.142 20.596 12.2733C20.596 12.4046 20.5701 12.5346 20.5199 12.6559C20.4696 12.7772 20.396 12.8874 20.3031 12.9803L15.7071 17.5763C15.6144 17.6693 15.5042 17.743 15.3829 17.7933C15.2615 17.8436 15.1315 17.8694 15.0001 17.8693Z" fill="#204E23"/>
</svg>
