<svg width="28" height="26" viewBox="0 0 28 26" fill="none" xmlns="http://www.w3.org/2000/svg">
<mask id="path-1-outside-1_1465_40614" maskUnits="userSpaceOnUse" x="0.0454102" y="-0.5" width="28" height="27" fill="black">
<rect fill="white" x="0.0454102" y="-0.5" width="28" height="27"/>
<path d="M14.0008 16.7126C13.7443 16.7126 7.65451 16.6596 2.99765 12.017C2.89908 11.9188 2.80305 11.8204 2.70881 11.7204C1.73399 10.694 1.27059 9.47441 1.3692 8.19311C1.4556 7.06317 1.97751 5.96713 2.8397 5.10767C3.70197 4.24828 4.80074 3.72812 5.93523 3.64197C7.12299 3.5515 8.25841 3.9395 9.23672 4.76583C9.34233 3.49232 9.8703 2.41809 10.7735 1.64478C11.6367 0.906235 12.7834 0.5 14.0017 0.5C15.22 0.5 16.3677 0.906235 17.2299 1.64478C18.134 2.41809 18.6612 3.49232 18.7676 4.76583C19.7459 3.9395 20.8813 3.5515 22.069 3.64197C23.2028 3.72812 24.3024 4.24828 25.1637 5.10767C26.0259 5.96713 26.5478 7.06232 26.6342 8.19311C26.732 9.47441 26.2686 10.694 25.2946 11.7204C25.2004 11.8196 25.1035 11.9188 25.0058 12.017C20.3472 16.6596 14.2583 16.7126 14.0008 16.7126ZM6.27038 4.59444C5.21437 4.59444 4.22298 5.08332 3.51781 5.78619C2.2498 7.05014 1.67465 9.24045 3.40609 11.0646C3.49423 11.1576 3.58415 11.2498 3.67669 11.3421C8.05592 15.707 13.9424 15.7575 14.0017 15.7575C14.0602 15.7575 19.958 15.6958 24.3268 11.3421C24.4193 11.2498 24.5092 11.1576 24.5973 11.0646C26.3287 9.2413 25.7528 7.05014 24.4848 5.78704C23.2167 4.52316 21.0192 3.9499 19.19 5.67484C19.0966 5.76269 19.0041 5.85231 18.9116 5.94455C18.8401 6.01583 18.772 6.08804 18.7039 6.16024L17.7893 7.12143L17.8251 5.80099C17.8277 5.70096 17.8312 5.60001 17.8312 5.49829C17.8312 5.36867 17.8294 5.2399 17.826 5.11121C17.7561 2.60157 15.7952 1.45775 14.0026 1.45775C12.21 1.45775 10.2482 2.60072 10.1792 5.11121C10.1758 5.23906 10.174 5.36783 10.174 5.49829C10.174 5.59747 10.1766 5.69572 10.1792 5.79313L10.2141 7.12143L9.30306 6.16286C9.23409 6.08981 9.16428 6.01668 9.09269 5.94455C9.00022 5.85231 8.90768 5.76269 8.81429 5.67484C8.0001 4.90677 7.11425 4.59444 6.27038 4.59444Z"/>
<path d="M26.4736 23.7568C24.757 24.5432 22.796 24.7485 20.9406 24.3327C19.1411 23.929 17.5632 22.9948 16.351 21.6231C16.4697 21.7048 16.5919 21.784 16.7176 21.8596C17.7543 22.4824 18.9064 22.7956 20.0583 22.7956C21.082 22.7956 22.1066 22.5486 23.0508 22.051C23.1181 22.0162 23.1844 21.9797 23.2507 21.9422L22.776 21.1107C22.7184 21.1437 22.6608 21.175 22.6023 21.2055C20.8961 22.1041 18.8819 22.0432 17.2133 21.0411C15.5054 20.0155 14.4852 18.221 14.4852 16.2411V15.8723H13.5164V16.2411C13.5164 18.221 12.4963 20.0155 10.7884 21.0411C9.11973 22.0432 7.1055 22.1049 5.39936 21.2055C5.34091 21.175 5.28332 21.1437 5.22572 21.1107L4.75094 21.9422C4.81727 21.9797 4.88361 22.0162 4.95079 22.051C5.89509 22.5486 6.91879 22.7956 7.94334 22.7956C9.0953 22.7956 10.2464 22.4824 11.2841 21.8596C11.4097 21.7848 11.5319 21.7057 11.6507 21.6231C10.4384 22.9948 8.86058 23.929 7.06105 24.3327C5.20562 24.7493 3.24465 24.5441 1.52802 23.7568L1.04541 24.5901C2.32826 25.1921 3.73683 25.5 5.1515 25.5C5.86193 25.5 6.5732 25.4226 7.27134 25.266C9.42342 24.7833 11.2919 23.6176 12.6726 21.897C12.9954 21.4951 13.2765 21.0637 13.5156 20.6123V25.5H14.4756V20.5957C14.7173 21.0533 15.0009 21.4908 15.3273 21.897C16.7088 23.6176 18.5765 24.7824 20.7286 25.266C21.4267 25.4226 22.138 25.5 22.8484 25.5C24.2631 25.5 25.6716 25.1921 26.9545 24.5901L26.4736 23.7568Z"/>
<path d="M13.3768 11.6448H12.6787C12.6787 10.6088 11.6672 9.76506 10.4236 9.76506C9.17996 9.76506 8.16848 10.608 8.16848 11.6448H7.47034C7.47034 10.2252 8.7951 9.06912 10.4236 9.06912C12.0521 9.06912 13.3768 10.2243 13.3768 11.6448Z"/>
<path d="M11.2265 11.6596C11.7813 11.6596 12.231 11.2113 12.231 10.6584C12.231 10.1054 11.7813 9.65716 11.2265 9.65716C10.6717 9.65716 10.222 10.1054 10.222 10.6584C10.222 11.2113 10.6717 11.6596 11.2265 11.6596Z"/>
<path d="M20.5383 11.6448H19.8402C19.8402 10.6088 18.8287 9.76506 17.5851 9.76506C16.3415 9.76506 15.33 10.608 15.33 11.6448H14.6319C14.6319 10.2252 15.9566 9.06912 17.5851 9.06912C19.2136 9.06912 20.5383 10.2243 20.5383 11.6448Z"/>
<path d="M18.3889 11.6596C18.9436 11.6596 19.3933 11.2113 19.3933 10.6584C19.3933 10.1054 18.9436 9.65716 18.3889 9.65716C17.8341 9.65716 17.3843 10.1054 17.3843 10.6584C17.3843 11.2113 17.8341 11.6596 18.3889 11.6596Z"/>
<path d="M13.9895 14.203C13.1665 14.203 12.4038 13.7812 12.0477 13.1296L12.6612 12.7965C12.8977 13.2279 13.4187 13.5071 13.9904 13.5071C14.562 13.5071 15.083 13.2279 15.3195 12.7965L15.9322 13.1296C15.5752 13.7812 14.8124 14.203 13.9895 14.203Z"/>
</mask>
<path d="M14.0008 16.7126C13.7443 16.7126 7.65451 16.6596 2.99765 12.017C2.89908 11.9188 2.80305 11.8204 2.70881 11.7204C1.73399 10.694 1.27059 9.47441 1.3692 8.19311C1.4556 7.06317 1.97751 5.96713 2.8397 5.10767C3.70197 4.24828 4.80074 3.72812 5.93523 3.64197C7.12299 3.5515 8.25841 3.9395 9.23672 4.76583C9.34233 3.49232 9.8703 2.41809 10.7735 1.64478C11.6367 0.906235 12.7834 0.5 14.0017 0.5C15.22 0.5 16.3677 0.906235 17.2299 1.64478C18.134 2.41809 18.6612 3.49232 18.7676 4.76583C19.7459 3.9395 20.8813 3.5515 22.069 3.64197C23.2028 3.72812 24.3024 4.24828 25.1637 5.10767C26.0259 5.96713 26.5478 7.06232 26.6342 8.19311C26.732 9.47441 26.2686 10.694 25.2946 11.7204C25.2004 11.8196 25.1035 11.9188 25.0058 12.017C20.3472 16.6596 14.2583 16.7126 14.0008 16.7126ZM6.27038 4.59444C5.21437 4.59444 4.22298 5.08332 3.51781 5.78619C2.2498 7.05014 1.67465 9.24045 3.40609 11.0646C3.49423 11.1576 3.58415 11.2498 3.67669 11.3421C8.05592 15.707 13.9424 15.7575 14.0017 15.7575C14.0602 15.7575 19.958 15.6958 24.3268 11.3421C24.4193 11.2498 24.5092 11.1576 24.5973 11.0646C26.3287 9.2413 25.7528 7.05014 24.4848 5.78704C23.2167 4.52316 21.0192 3.9499 19.19 5.67484C19.0966 5.76269 19.0041 5.85231 18.9116 5.94455C18.8401 6.01583 18.772 6.08804 18.7039 6.16024L17.7893 7.12143L17.8251 5.80099C17.8277 5.70096 17.8312 5.60001 17.8312 5.49829C17.8312 5.36867 17.8294 5.2399 17.826 5.11121C17.7561 2.60157 15.7952 1.45775 14.0026 1.45775C12.21 1.45775 10.2482 2.60072 10.1792 5.11121C10.1758 5.23906 10.174 5.36783 10.174 5.49829C10.174 5.59747 10.1766 5.69572 10.1792 5.79313L10.2141 7.12143L9.30306 6.16286C9.23409 6.08981 9.16428 6.01668 9.09269 5.94455C9.00022 5.85231 8.90768 5.76269 8.81429 5.67484C8.0001 4.90677 7.11425 4.59444 6.27038 4.59444Z" fill="#BCFA59"/>
<path d="M26.4736 23.7568C24.757 24.5432 22.796 24.7485 20.9406 24.3327C19.1411 23.929 17.5632 22.9948 16.351 21.6231C16.4697 21.7048 16.5919 21.784 16.7176 21.8596C17.7543 22.4824 18.9064 22.7956 20.0583 22.7956C21.082 22.7956 22.1066 22.5486 23.0508 22.051C23.1181 22.0162 23.1844 21.9797 23.2507 21.9422L22.776 21.1107C22.7184 21.1437 22.6608 21.175 22.6023 21.2055C20.8961 22.1041 18.8819 22.0432 17.2133 21.0411C15.5054 20.0155 14.4852 18.221 14.4852 16.2411V15.8723H13.5164V16.2411C13.5164 18.221 12.4963 20.0155 10.7884 21.0411C9.11973 22.0432 7.1055 22.1049 5.39936 21.2055C5.34091 21.175 5.28332 21.1437 5.22572 21.1107L4.75094 21.9422C4.81727 21.9797 4.88361 22.0162 4.95079 22.051C5.89509 22.5486 6.91879 22.7956 7.94334 22.7956C9.0953 22.7956 10.2464 22.4824 11.2841 21.8596C11.4097 21.7848 11.5319 21.7057 11.6507 21.6231C10.4384 22.9948 8.86058 23.929 7.06105 24.3327C5.20562 24.7493 3.24465 24.5441 1.52802 23.7568L1.04541 24.5901C2.32826 25.1921 3.73683 25.5 5.1515 25.5C5.86193 25.5 6.5732 25.4226 7.27134 25.266C9.42342 24.7833 11.2919 23.6176 12.6726 21.897C12.9954 21.4951 13.2765 21.0637 13.5156 20.6123V25.5H14.4756V20.5957C14.7173 21.0533 15.0009 21.4908 15.3273 21.897C16.7088 23.6176 18.5765 24.7824 20.7286 25.266C21.4267 25.4226 22.138 25.5 22.8484 25.5C24.2631 25.5 25.6716 25.1921 26.9545 24.5901L26.4736 23.7568Z" fill="#BCFA59"/>
<path d="M13.3768 11.6448H12.6787C12.6787 10.6088 11.6672 9.76506 10.4236 9.76506C9.17996 9.76506 8.16848 10.608 8.16848 11.6448H7.47034C7.47034 10.2252 8.7951 9.06912 10.4236 9.06912C12.0521 9.06912 13.3768 10.2243 13.3768 11.6448Z" fill="#BCFA59"/>
<path d="M11.2265 11.6596C11.7813 11.6596 12.231 11.2113 12.231 10.6584C12.231 10.1054 11.7813 9.65716 11.2265 9.65716C10.6717 9.65716 10.222 10.1054 10.222 10.6584C10.222 11.2113 10.6717 11.6596 11.2265 11.6596Z" fill="#BCFA59"/>
<path d="M20.5383 11.6448H19.8402C19.8402 10.6088 18.8287 9.76506 17.5851 9.76506C16.3415 9.76506 15.33 10.608 15.33 11.6448H14.6319C14.6319 10.2252 15.9566 9.06912 17.5851 9.06912C19.2136 9.06912 20.5383 10.2243 20.5383 11.6448Z" fill="#BCFA59"/>
<path d="M18.3889 11.6596C18.9436 11.6596 19.3933 11.2113 19.3933 10.6584C19.3933 10.1054 18.9436 9.65716 18.3889 9.65716C17.8341 9.65716 17.3843 10.1054 17.3843 10.6584C17.3843 11.2113 17.8341 11.6596 18.3889 11.6596Z" fill="#BCFA59"/>
<path d="M13.9895 14.203C13.1665 14.203 12.4038 13.7812 12.0477 13.1296L12.6612 12.7965C12.8977 13.2279 13.4187 13.5071 13.9904 13.5071C14.562 13.5071 15.083 13.2279 15.3195 12.7965L15.9322 13.1296C15.5752 13.7812 14.8124 14.203 13.9895 14.203Z" fill="#BCFA59"/>
<path d="M14.0008 16.7126C13.7443 16.7126 7.65451 16.6596 2.99765 12.017C2.89908 11.9188 2.80305 11.8204 2.70881 11.7204C1.73399 10.694 1.27059 9.47441 1.3692 8.19311C1.4556 7.06317 1.97751 5.96713 2.8397 5.10767C3.70197 4.24828 4.80074 3.72812 5.93523 3.64197C7.12299 3.5515 8.25841 3.9395 9.23672 4.76583C9.34233 3.49232 9.8703 2.41809 10.7735 1.64478C11.6367 0.906235 12.7834 0.5 14.0017 0.5C15.22 0.5 16.3677 0.906235 17.2299 1.64478C18.134 2.41809 18.6612 3.49232 18.7676 4.76583C19.7459 3.9395 20.8813 3.5515 22.069 3.64197C23.2028 3.72812 24.3024 4.24828 25.1637 5.10767C26.0259 5.96713 26.5478 7.06232 26.6342 8.19311C26.732 9.47441 26.2686 10.694 25.2946 11.7204C25.2004 11.8196 25.1035 11.9188 25.0058 12.017C20.3472 16.6596 14.2583 16.7126 14.0008 16.7126ZM6.27038 4.59444C5.21437 4.59444 4.22298 5.08332 3.51781 5.78619C2.2498 7.05014 1.67465 9.24045 3.40609 11.0646C3.49423 11.1576 3.58415 11.2498 3.67669 11.3421C8.05592 15.707 13.9424 15.7575 14.0017 15.7575C14.0602 15.7575 19.958 15.6958 24.3268 11.3421C24.4193 11.2498 24.5092 11.1576 24.5973 11.0646C26.3287 9.2413 25.7528 7.05014 24.4848 5.78704C23.2167 4.52316 21.0192 3.9499 19.19 5.67484C19.0966 5.76269 19.0041 5.85231 18.9116 5.94455C18.8401 6.01583 18.772 6.08804 18.7039 6.16024L17.7893 7.12143L17.8251 5.80099C17.8277 5.70096 17.8312 5.60001 17.8312 5.49829C17.8312 5.36867 17.8294 5.2399 17.826 5.11121C17.7561 2.60157 15.7952 1.45775 14.0026 1.45775C12.21 1.45775 10.2482 2.60072 10.1792 5.11121C10.1758 5.23906 10.174 5.36783 10.174 5.49829C10.174 5.59747 10.1766 5.69572 10.1792 5.79313L10.2141 7.12143L9.30306 6.16286C9.23409 6.08981 9.16428 6.01668 9.09269 5.94455C9.00022 5.85231 8.90768 5.76269 8.81429 5.67484C8.0001 4.90677 7.11425 4.59444 6.27038 4.59444Z" stroke="#BCFA59" stroke-width="0.6" mask="url(#path-1-outside-1_1465_40614)"/>
<path d="M26.4736 23.7568C24.757 24.5432 22.796 24.7485 20.9406 24.3327C19.1411 23.929 17.5632 22.9948 16.351 21.6231C16.4697 21.7048 16.5919 21.784 16.7176 21.8596C17.7543 22.4824 18.9064 22.7956 20.0583 22.7956C21.082 22.7956 22.1066 22.5486 23.0508 22.051C23.1181 22.0162 23.1844 21.9797 23.2507 21.9422L22.776 21.1107C22.7184 21.1437 22.6608 21.175 22.6023 21.2055C20.8961 22.1041 18.8819 22.0432 17.2133 21.0411C15.5054 20.0155 14.4852 18.221 14.4852 16.2411V15.8723H13.5164V16.2411C13.5164 18.221 12.4963 20.0155 10.7884 21.0411C9.11973 22.0432 7.1055 22.1049 5.39936 21.2055C5.34091 21.175 5.28332 21.1437 5.22572 21.1107L4.75094 21.9422C4.81727 21.9797 4.88361 22.0162 4.95079 22.051C5.89509 22.5486 6.91879 22.7956 7.94334 22.7956C9.0953 22.7956 10.2464 22.4824 11.2841 21.8596C11.4097 21.7848 11.5319 21.7057 11.6507 21.6231C10.4384 22.9948 8.86058 23.929 7.06105 24.3327C5.20562 24.7493 3.24465 24.5441 1.52802 23.7568L1.04541 24.5901C2.32826 25.1921 3.73683 25.5 5.1515 25.5C5.86193 25.5 6.5732 25.4226 7.27134 25.266C9.42342 24.7833 11.2919 23.6176 12.6726 21.897C12.9954 21.4951 13.2765 21.0637 13.5156 20.6123V25.5H14.4756V20.5957C14.7173 21.0533 15.0009 21.4908 15.3273 21.897C16.7088 23.6176 18.5765 24.7824 20.7286 25.266C21.4267 25.4226 22.138 25.5 22.8484 25.5C24.2631 25.5 25.6716 25.1921 26.9545 24.5901L26.4736 23.7568Z" stroke="#BCFA59" stroke-width="0.6" mask="url(#path-1-outside-1_1465_40614)"/>
<path d="M13.3768 11.6448H12.6787C12.6787 10.6088 11.6672 9.76506 10.4236 9.76506C9.17996 9.76506 8.16848 10.608 8.16848 11.6448H7.47034C7.47034 10.2252 8.7951 9.06912 10.4236 9.06912C12.0521 9.06912 13.3768 10.2243 13.3768 11.6448Z" stroke="#BCFA59" stroke-width="0.6" mask="url(#path-1-outside-1_1465_40614)"/>
<path d="M11.2265 11.6596C11.7813 11.6596 12.231 11.2113 12.231 10.6584C12.231 10.1054 11.7813 9.65716 11.2265 9.65716C10.6717 9.65716 10.222 10.1054 10.222 10.6584C10.222 11.2113 10.6717 11.6596 11.2265 11.6596Z" stroke="#BCFA59" stroke-width="0.6" mask="url(#path-1-outside-1_1465_40614)"/>
<path d="M20.5383 11.6448H19.8402C19.8402 10.6088 18.8287 9.76506 17.5851 9.76506C16.3415 9.76506 15.33 10.608 15.33 11.6448H14.6319C14.6319 10.2252 15.9566 9.06912 17.5851 9.06912C19.2136 9.06912 20.5383 10.2243 20.5383 11.6448Z" stroke="#BCFA59" stroke-width="0.6" mask="url(#path-1-outside-1_1465_40614)"/>
<path d="M18.3889 11.6596C18.9436 11.6596 19.3933 11.2113 19.3933 10.6584C19.3933 10.1054 18.9436 9.65716 18.3889 9.65716C17.8341 9.65716 17.3843 10.1054 17.3843 10.6584C17.3843 11.2113 17.8341 11.6596 18.3889 11.6596Z" stroke="#BCFA59" stroke-width="0.6" mask="url(#path-1-outside-1_1465_40614)"/>
<path d="M13.9895 14.203C13.1665 14.203 12.4038 13.7812 12.0477 13.1296L12.6612 12.7965C12.8977 13.2279 13.4187 13.5071 13.9904 13.5071C14.562 13.5071 15.083 13.2279 15.3195 12.7965L15.9322 13.1296C15.5752 13.7812 14.8124 14.203 13.9895 14.203Z" stroke="#BCFA59" stroke-width="0.6" mask="url(#path-1-outside-1_1465_40614)"/>
</svg>
