<svg width="158" height="36" viewBox="0 0 158 36" fill="none" xmlns="http://www.w3.org/2000/svg">
<path d="M0 18.6782C0 9.31821 7.58774 1.73047 16.9477 1.73047H29.7811C32.0534 1.73047 33.8954 3.5725 33.8954 5.84475V18.6782C33.8954 28.0381 26.3076 35.6259 16.9477 35.6259C7.58774 35.6259 0 28.0381 0 18.6782Z" fill="#BBFA5A"/>
<path d="M21.7139 20.6902C21.7139 22.5687 20.481 24.0679 18.8339 24.6418C18.7093 24.6852 18.6219 24.8004 18.6219 24.9324V25.5461C18.6219 25.7104 18.4887 25.8436 18.3244 25.8436H16.858C16.6937 25.8436 16.5605 25.7104 16.5605 25.5461V24.9454C16.5605 24.8074 16.4651 24.6886 16.333 24.6487C14.7812 24.1791 13.6005 22.7294 13.4789 20.9876C13.4674 20.8237 13.6017 20.6902 13.766 20.6902H15.2324C15.3967 20.6902 15.5276 20.8241 15.5513 20.9867C15.6962 21.9813 16.5581 22.7515 17.5912 22.7515C18.725 22.7515 19.6526 21.8239 19.6526 20.6902C19.6526 20.5871 19.4464 19.6595 17.5912 19.6595C14.293 19.6595 13.4685 17.5981 13.4685 16.5675C13.4685 14.6889 14.7015 13.1898 16.3486 12.6159C16.4732 12.5724 16.5605 12.4572 16.5605 12.3252V11.7115C16.5605 11.5472 16.6937 11.4141 16.858 11.4141H18.3244C18.4887 11.4141 18.6219 11.5472 18.6219 11.7115V12.3122C18.6219 12.4503 18.7173 12.569 18.8495 12.609C20.4012 13.0785 21.5819 14.5282 21.7036 16.27C21.715 16.4339 21.5808 16.5675 21.4165 16.5675H19.95C19.7858 16.5675 19.6548 16.4335 19.6312 16.2709C19.4863 15.2763 18.6243 14.5061 17.5912 14.5061C16.4575 14.5061 15.5299 15.4337 15.5299 16.5675C15.5299 16.6705 15.736 17.5981 17.5912 17.5981C20.8894 17.5981 21.7139 19.6595 21.7139 20.6902Z" fill="#204E23"/>
<path d="M21.7139 20.6902C21.7139 22.5687 20.481 24.0679 18.8339 24.6418C18.7093 24.6852 18.6219 24.8004 18.6219 24.9324V25.5461C18.6219 25.7104 18.4887 25.8436 18.3244 25.8436H16.858C16.6937 25.8436 16.5605 25.7104 16.5605 25.5461V24.9454C16.5605 24.8074 16.4651 24.6886 16.333 24.6487C14.7812 24.1791 13.6005 22.7294 13.4789 20.9876C13.4674 20.8237 13.6017 20.6902 13.766 20.6902H15.2324C15.3967 20.6902 15.5276 20.8241 15.5513 20.9867C15.6962 21.9813 16.5581 22.7515 17.5912 22.7515C18.725 22.7515 19.6526 21.8239 19.6526 20.6902C19.6526 20.5871 19.4464 19.6595 17.5912 19.6595C14.293 19.6595 13.4685 17.5981 13.4685 16.5675C13.4685 14.6889 14.7015 13.1898 16.3486 12.6159C16.4732 12.5724 16.5605 12.4572 16.5605 12.3252V11.7115C16.5605 11.5472 16.6937 11.4141 16.858 11.4141H18.3244C18.4887 11.4141 18.6219 11.5472 18.6219 11.7115V12.3122C18.6219 12.4503 18.7173 12.569 18.8495 12.609C20.4012 13.0785 21.5819 14.5282 21.7036 16.27C21.715 16.4339 21.5808 16.5675 21.4165 16.5675H19.95C19.7858 16.5675 19.6548 16.4335 19.6312 16.2709C19.4863 15.2763 18.6243 14.5061 17.5912 14.5061C16.4575 14.5061 15.5299 15.4337 15.5299 16.5675C15.5299 16.6705 15.736 17.5981 17.5912 17.5981C20.8894 17.5981 21.7139 19.6595 21.7139 20.6902Z" stroke="#204E22"/>
<path d="M4.84229 19.0236C4.84229 12.1469 10.4169 6.57227 17.2936 6.57227H27.6879C28.824 6.57227 29.745 7.49328 29.745 8.62941V19.0236C29.745 25.9003 24.1703 31.475 17.2937 31.475V31.475C10.417 31.475 4.84229 25.9003 4.84229 19.0236V19.0236Z" stroke="#204E22" stroke-width="3.11284"/>
<path d="M44.6126 28V8.14699H47.6757V25.2206H57.2335V28H44.6126ZM66.4791 28.3971C65.061 28.3971 63.8226 28.104 62.7637 27.5179C61.7049 26.9128 60.873 26.0714 60.2679 24.9937C59.6818 23.897 59.3887 22.6302 59.3887 21.1933V20.8529C59.3887 19.397 59.6818 18.1302 60.2679 17.0525C60.8541 15.9558 61.6671 15.1144 62.707 14.5283C63.7658 13.9233 64.9854 13.6207 66.3656 13.6207C67.7081 13.6207 68.8803 13.9233 69.8824 14.5283C70.9035 15.1144 71.6976 15.9369 72.2648 16.9958C72.832 18.0546 73.1157 19.293 73.1157 20.7111V21.8172H62.3667C62.4045 23.0462 62.811 24.0294 63.5862 24.7668C64.3803 25.4853 65.3635 25.8445 66.5358 25.8445C67.6324 25.8445 68.4549 25.5987 69.0032 25.1071C69.5705 24.6155 70.0053 24.0483 70.3079 23.4054L72.7186 24.6533C72.4539 25.1828 72.0663 25.7405 71.5558 26.3267C71.0642 26.9128 70.4119 27.4044 69.5988 27.8015C68.7858 28.1985 67.7459 28.3971 66.4791 28.3971ZM62.395 19.5767H70.1377C70.0621 18.5178 69.6839 17.6953 69.0032 17.1092C68.3226 16.5042 67.4339 16.2016 66.3373 16.2016C65.2406 16.2016 64.3425 16.5042 63.6429 17.1092C62.9623 17.6953 62.5463 18.5178 62.395 19.5767ZM76.632 28V14.0178H79.4965V16.1166H79.9503C80.215 15.5493 80.6877 15.0199 81.3684 14.5283C82.0491 14.0367 83.0606 13.7909 84.4031 13.7909C85.4619 13.7909 86.3978 14.0273 87.2108 14.5C88.0428 14.9726 88.6951 15.6439 89.1678 16.5136C89.6405 17.3645 89.8768 18.3949 89.8768 19.605V28H86.9556V19.8319C86.9556 18.6218 86.6531 17.7332 86.048 17.1659C85.443 16.5798 84.611 16.2867 83.5522 16.2867C82.3421 16.2867 81.3684 16.6838 80.631 17.4779C79.9125 18.272 79.5533 19.4254 79.5533 20.938V28H76.632ZM99.81 28.3971C98.0327 28.3971 96.5579 28 95.3856 27.2059C94.2133 26.4118 93.4948 25.2111 93.2301 23.604L95.9528 22.9517C96.1041 23.7269 96.3593 24.3414 96.7186 24.7952C97.0778 25.2489 97.5222 25.5704 98.0516 25.7594C98.5999 25.9485 99.186 26.0431 99.81 26.0431C100.736 26.0431 101.445 25.8634 101.937 25.5042C102.448 25.1449 102.703 24.6817 102.703 24.1145C102.703 23.5473 102.466 23.1313 101.994 22.8666C101.521 22.6019 100.822 22.3844 99.8951 22.2143L98.9308 22.0441C97.9854 21.8739 97.1251 21.6281 96.3499 21.3067C95.5747 20.9853 94.9602 20.5409 94.5064 19.9737C94.0526 19.4065 93.8257 18.6785 93.8257 17.7899C93.8257 16.4663 94.3173 15.4453 95.3005 14.7268C96.2837 13.9894 97.5883 13.6207 99.2144 13.6207C100.784 13.6207 102.069 13.98 103.072 14.6985C104.093 15.3981 104.754 16.3529 105.057 17.563L102.334 18.3287C102.164 17.4779 101.805 16.8823 101.256 16.542C100.708 16.1827 100.027 16.0031 99.2144 16.0031C98.4203 16.0031 97.7963 16.1544 97.3425 16.4569C96.8887 16.7405 96.6619 17.147 96.6619 17.6764C96.6619 18.2437 96.8793 18.6596 97.3142 18.9243C97.768 19.189 98.373 19.3876 99.1293 19.5199L100.122 19.6901C101.124 19.8603 102.041 20.0966 102.873 20.3991C103.705 20.7017 104.357 21.1365 104.83 21.7038C105.322 22.271 105.567 23.0273 105.567 23.9727C105.567 25.3718 105.047 26.459 104.007 27.2342C102.968 28.0095 101.568 28.3971 99.81 28.3971ZM108.897 28V8.14699H116.781C117.991 8.14699 119.069 8.39279 120.014 8.88439C120.979 9.35708 121.726 10.0378 122.255 10.9264C122.803 11.7962 123.077 12.8455 123.077 14.0745V14.4432C123.077 15.6722 122.794 16.7311 122.227 17.6197C121.678 18.5084 120.931 19.189 119.986 19.6617C119.041 20.1344 117.972 20.3708 116.781 20.3708H111.96V28H108.897ZM111.96 17.5913H116.469C117.547 17.5913 118.407 17.3077 119.05 16.7405C119.693 16.1733 120.014 15.3981 120.014 14.4149V14.1313C120.014 13.1291 119.693 12.3445 119.05 11.7773C118.407 11.21 117.547 10.9264 116.469 10.9264H111.96V17.5913ZM130.105 28.3971C129.103 28.3971 128.205 28.2269 127.411 27.8866C126.636 27.5462 126.012 27.0452 125.539 26.3834C125.085 25.7216 124.858 24.9181 124.858 23.9727C124.858 23.0084 125.085 22.2143 125.539 21.5903C126.012 20.9475 126.645 20.4653 127.439 20.1439C128.252 19.8225 129.169 19.6617 130.19 19.6617H134.445V18.7542C134.445 17.9411 134.199 17.2888 133.707 16.7972C133.216 16.3056 132.459 16.0598 131.438 16.0598C130.436 16.0598 129.67 16.2962 129.141 16.7689C128.612 17.2416 128.262 17.8561 128.092 18.6124L125.369 17.7332C125.596 16.9769 125.955 16.2962 126.447 15.6911C126.957 15.0672 127.628 14.5661 128.46 14.188C129.292 13.8098 130.294 13.6207 131.467 13.6207C133.282 13.6207 134.709 14.084 135.749 15.0105C136.789 15.9369 137.309 17.251 137.309 18.9527V24.7101C137.309 25.2773 137.574 25.5609 138.103 25.5609H139.294V28H137.111C136.449 28 135.91 27.8298 135.494 27.4895C135.078 27.1492 134.87 26.6859 134.87 26.0998V26.0147H134.445C134.293 26.2983 134.066 26.6292 133.764 27.0073C133.461 27.3855 133.017 27.7164 132.431 28C131.845 28.2647 131.07 28.3971 130.105 28.3971ZM130.531 25.9863C131.703 25.9863 132.648 25.6555 133.367 24.9937C134.085 24.313 134.445 23.3865 134.445 22.2143V21.9307H130.361C129.585 21.9307 128.961 22.1008 128.489 22.4412C128.016 22.7626 127.78 23.2447 127.78 23.8876C127.78 24.5304 128.025 25.041 128.517 25.4191C129.009 25.7973 129.68 25.9863 130.531 25.9863ZM143.391 33.6723V31.1198H151.191C151.72 31.1198 151.985 30.8361 151.985 30.2689V25.958H151.531C151.361 26.3361 151.096 26.7048 150.737 27.0641C150.397 27.4044 149.933 27.688 149.347 27.9149C148.761 28.1418 148.024 28.2553 147.135 28.2553C146.076 28.2553 145.131 28.0189 144.299 27.5462C143.467 27.0735 142.815 26.4023 142.342 25.5326C141.869 24.6628 141.633 23.6323 141.633 22.4412V14.0178H144.554V22.2143C144.554 23.4244 144.857 24.3225 145.462 24.9086C146.067 25.4758 146.908 25.7594 147.986 25.7594C149.177 25.7594 150.132 25.3624 150.85 24.5683C151.588 23.7741 151.956 22.6208 151.956 21.1082V14.0178H154.878V30.8645C154.878 31.7153 154.622 32.396 154.112 32.9065C153.62 33.417 152.94 33.6723 152.07 33.6723H143.391Z" fill="black"/>
</svg>
